<svg xmlns="http://www.w3.org/2000/svg" width="15" height="12" viewBox="0 0 15 12"><g transform="translate(-38 -331)"><path d="M2.153,89.113h7.3a.63.63,0,0,0,0-1.26h-7.3L3.6,86.409a.63.63,0,1,0-.891-.891l-2.52,2.52q-.022.022-.042.046l-.017.022-.02.027-.017.027-.015.025c-.005.009-.009.019-.014.029l-.013.027c0,.009-.007.019-.01.028s-.007.02-.01.03,0,.019-.007.029-.006.021-.008.031,0,.022-.005.033,0,.018,0,.028a.634.634,0,0,0,0,.124c0,.009,0,.018,0,.028s0,.022.005.033,0,.021.008.031,0,.019.007.029.007.02.01.03.006.019.01.028.008.018.013.027.009.019.014.029l.015.025.017.027.02.027.017.022c.013.016.027.031.041.046h0l2.52,2.52a.63.63,0,1,0,.891-.891Z" transform="translate(37.997 245.666)" fill="#fff"/><path d="M180.6,216.885l.017-.023.02-.027.017-.028.015-.025.014-.029.013-.027c0-.009.007-.019.01-.028s.007-.02.01-.03,0-.019.007-.029.006-.021.008-.031,0-.022.005-.033,0-.018,0-.028a.632.632,0,0,0,0-.124c0-.009,0-.018,0-.028s0-.022-.005-.033,0-.021-.008-.031,0-.019-.007-.029-.007-.02-.01-.03-.006-.019-.01-.028l-.013-.027c0-.01-.009-.019-.014-.029l-.015-.025-.017-.028-.02-.027-.017-.023q-.019-.024-.041-.045h0l-2.52-2.52a.63.63,0,0,0-.891.891l1.444,1.444h-7.3a.63.63,0,0,0,0,1.26h7.3l-1.444,1.444a.63.63,0,0,0,.891.891l2.52-2.52h0Q180.583,216.909,180.6,216.885Z" transform="translate(-127.746 123.364)" fill="#fff"/></g></svg>